# File created by Blade
# Date/Time:  Wed Jan 21 16:14:13 2015
# Frame Rate: 120.000 fps
#------------------------------------------------------
:FULLY-SPECIFIED
:DEGREES
335
root 18.576062 35.624677 -19.488084 -180.163582 -1.687560 -178.879047
Spine -14.889525 1.491359 -0.126754
Head 12.922804 -2.122963 -2.213328
LeftShoulder 17.893741 -50.149568 4.784850
LeftArm 36.763481 13.398726 -45.593370
LeftForeArm 6.577751 -0.000000 -2.101689
LeftHand -8.449933 -0.000000 -6.579910
LeftHandThumb1 -26.253704 0.000000 33.147579
RightShoulder 9.612231 10.337746 -12.157661
RightArm 61.493189 11.077365 42.364335
RightForeArm -36.476307 -0.000000 5.287844
RightHand -2.608520 -0.000000 10.669609
RightHandThumb1 -24.326973 -0.000000 -32.862282
LeftUpLeg 6.580082 9.484254 1.245125
LeftLeg -4.811514 -0.000000 0.000000
LeftFoot -20.187212 25.423941 -11.868076
LeftToeBase 26.881744 -0.000000 -0.000000
RightUpLeg 5.345344 -8.260722 0.894080
RightLeg -2.036419 -0.000000 0.000000
RightFoot -20.449815 -26.450472 13.718041
RightToeBase 23.789752 -0.000000 -0.000000
336
root 18.576545 35.625239 -19.464860 -180.222118 -1.786479 -178.905195
Spine -14.779076 1.622887 -0.190677
Head 12.755640 -2.436260 -2.288254
LeftShoulder 18.532086 -50.196004 4.309565
LeftArm 37.659985 13.772401 -46.595251
LeftForeArm 7.244938 -0.000000 -2.212852
LeftHand -8.331544 -0.000000 -6.535188
LeftHandThumb1 -26.253704 0.000000 33.147579
RightShoulder 9.982776 10.570529 -12.131360
RightArm 62.283987 10.708058 42.885635
RightForeArm -36.563685 -0.000000 5.332940
RightHand -2.211806 0.000000 10.853118
RightHandThumb1 -24.326973 -0.000000 -32.862282
LeftUpLeg 6.590663 9.446605 1.224651
LeftLeg -4.823496 -0.000000 0.000000
LeftFoot -20.141850 25.371656 -11.862315
LeftToeBase 26.977600 -0.000000 -0.000000
RightUpLeg 5.392335 -8.284892 0.864453
RightLeg -2.058947 -0.000000 0.000000
RightFoot -20.420583 -26.533188 13.609027
RightToeBase 23.942025 -0.000000 -0.000000
337
root 18.576901 35.626650 -19.440417 -180.280631 -1.892045 -178.930445
Spine -14.681835 1.725750 -0.237489
Head 12.644330 -2.738734 -2.425122
LeftShoulder 19.230611 -50.485919 3.710966
LeftArm 38.337865 14.523579 -47.535602
LeftForeArm 7.909702 -0.000000 -2.232757
LeftHand -8.359290 -0.000000 -6.336182
LeftHandThumb1 -26.253704 0.000000 33.147579
RightShoulder 10.397771 10.754495 -12.070811
RightArm 63.015725 10.197129 43.046769
RightForeArm -36.479359 -0.000000 5.418207
RightHand -1.910091 -0.000000 10.876599
RightHandThumb1 -24.326973 -0.000000 -32.862282
LeftUpLeg 6.595717 9.435129 1.205763
LeftLeg -4.831505 -0.000000 0.000000
LeftFoot -20.065387 25.310547 -11.823740
LeftToeBase 26.971579 -0.000000 -0.000000
RightUpLeg 5.449502 -8.316628 0.837938
RightLeg -2.109464 -0.000000 0.000000
RightFoot -20.399055 -26.596820 13.587550
RightToeBase 23.986194 -0.000000 -0.000000
338
root 18.578931 35.628176 -19.417081 -180.331174 -2.019468 -178.946507
Spine -14.568229 1.848747 -0.291927
Head 12.476962 -3.055133 -2.511393
LeftShoulder 19.708347 -50.435580 3.255671
LeftArm 39.523220 15.405669 -48.114978
LeftForeArm 8.447887 -0.000000 -2.314508
LeftHand -8.374039 -0.000000 -6.101830
LeftHandThumb1 -26.253704 0.000000 33.147579
RightShoulder 10.706404 10.901524 -12.033586
RightArm 63.810610 9.730094 43.308587
RightForeArm -36.480423 0.000000 5.480229
RightHand -1.610570 0.000000 11.124460
RightHandThumb1 -24.326973 -0.000000 -32.862282
LeftUpLeg 6.584731 9.393220 1.199271
LeftLeg -4.821641 -0.000000 0.000000
LeftFoot -20.001333 25.228643 -11.782224
LeftToeBase 26.997046 -0.000000 -0.000000
RightUpLeg 5.497053 -8.369928 0.824460
RightLeg -2.150372 -0.000000 0.000000
RightFoot -20.381527 -26.654187 13.603054
RightToeBase 23.950402 -0.000000 -0.000000
339
root 18.579182 35.629730 -19.393840 -180.349677 -2.137928 -178.975465
Spine -14.492360 1.935248 -0.354474
Head 12.320792 -3.348370 -2.582972
LeftShoulder 20.055189 -50.409258 2.910349
LeftArm 40.736176 16.423133 -48.644851
LeftForeArm 8.818846 -0.000000 -2.489528
LeftHand -8.231675 -0.000000 -5.880915
LeftHandThumb1 -26.253704 0.000000 33.147579
RightShoulder 10.992265 10.911090 -11.991057
RightArm 64.692903 9.258612 43.415611
RightForeArm -36.264304 -0.000000 5.553211
RightHand -1.463958 0.000000 11.117759
RightHandThumb1 -24.326973 -0.000000 -32.862282
LeftUpLeg 6.547916 9.315860 1.164644
LeftLeg -4.822801 -0.000000 0.000000
LeftFoot -19.940760 25.217736 -11.761967
LeftToeBase 27.048501 -0.000000 -0.000000
RightUpLeg 5.510627 -8.431067 0.798393
RightLeg -2.186816 -0.000000 0.000000
RightFoot -20.347266 -26.703803 13.573067
RightToeBase 23.903409 -0.000000 -0.000000
340
root 18.581230 35.631124 -19.367904 -180.344449 -2.277766 -179.000045
Spine -14.405286 2.002753 -0.437438
Head 12.032722 -3.755484 -2.587298
LeftShoulder 20.511423 -50.779973 2.545626
LeftArm 41.432132 17.363734 -49.635173
LeftForeArm 9.236962 -0.000000 -2.581573
LeftHand -8.139465 -0.000000 -5.501188
LeftHandThumb1 -26.253704 0.000000 33.147579
RightShoulder 11.254064 11.374206 -11.904871
RightArm 65.199993 8.479091 43.545957
RightForeArm -36.121521 -0.000000 5.666869
RightHand -1.204776 -0.000000 11.207530
RightHandThumb1 -24.326973 -0.000000 -32.862282
LeftUpLeg 6.467523 9.228583 1.134131
LeftLeg -4.796124 -0.000000 0.000000
LeftFoot -19.845134 25.199805 -11.678121
LeftToeBase 26.997007 -0.000000 -0.000000
RightUpLeg 5.492982 -8.522243 0.784030
RightLeg -2.217825 -0.000000 0.000000
RightFoot -20.311596 -26.778453 13.538351
RightToeBase 23.934201 -0.000000 -0.000000
